<mxfile host="65bd71144e">
    <diagram id="cZsRJtEAy4bJjDGaYQ6B" name="Page-1">
        <mxGraphModel dx="1154" dy="777" grid="1" gridSize="10" guides="1" tooltips="1" connect="1" arrows="1" fold="1" page="1" pageScale="1" pageWidth="850" pageHeight="1100" math="0" shadow="0">
            <root>
                <mxCell id="0"/>
                <mxCell id="1" parent="0"/>
                <mxCell id="2" value="" style="rounded=0;whiteSpace=wrap;html=1;fontSize=15;" vertex="1" parent="1">
                    <mxGeometry x="200" y="440" width="140" height="60" as="geometry"/>
                </mxCell>
                <mxCell id="3" value="&lt;font style=&quot;font-size: 12px&quot;&gt;Geef kopje koffie&lt;/font&gt;" style="rounded=0;whiteSpace=wrap;html=1;fontSize=15;" vertex="1" parent="1">
                    <mxGeometry x="200" y="500" width="70" height="40" as="geometry"/>
                </mxCell>
                <mxCell id="4" value="&lt;font style=&quot;font-size: 12px&quot;&gt;Ga terug naar huis&lt;/font&gt;" style="rounded=0;whiteSpace=wrap;html=1;fontSize=15;" vertex="1" parent="1">
                    <mxGeometry x="270" y="500" width="70" height="40" as="geometry"/>
                </mxCell>
                <mxCell id="6" value="" style="endArrow=none;html=1;fontSize=12;exitX=0;exitY=0;exitDx=0;exitDy=0;entryX=1;entryY=0;entryDx=0;entryDy=0;" edge="1" parent="1" source="4" target="2">
                    <mxGeometry width="50" height="50" relative="1" as="geometry">
                        <mxPoint x="290" y="510" as="sourcePoint"/>
                        <mxPoint x="340" y="460" as="targetPoint"/>
                    </mxGeometry>
                </mxCell>
                <mxCell id="7" value="" style="endArrow=none;html=1;fontSize=12;exitX=0;exitY=0;exitDx=0;exitDy=0;entryX=0;entryY=0;entryDx=0;entryDy=0;" edge="1" parent="1" source="4" target="2">
                    <mxGeometry width="50" height="50" relative="1" as="geometry">
                        <mxPoint x="320" y="500" as="sourcePoint"/>
                        <mxPoint x="390" y="460" as="targetPoint"/>
                    </mxGeometry>
                </mxCell>
                <mxCell id="9" value="Ja" style="text;html=1;align=center;verticalAlign=middle;resizable=0;points=[];autosize=1;strokeColor=none;fillColor=none;fontSize=12;" vertex="1" parent="1">
                    <mxGeometry x="200" y="480" width="30" height="20" as="geometry"/>
                </mxCell>
                <mxCell id="10" value="Nee" style="text;html=1;align=center;verticalAlign=middle;resizable=0;points=[];autosize=1;strokeColor=none;fillColor=none;fontSize=12;" vertex="1" parent="1">
                    <mxGeometry x="300" y="480" width="40" height="20" as="geometry"/>
                </mxCell>
                <mxCell id="11" value="&lt;font style=&quot;font-size: 12px&quot;&gt;Vraag:&lt;br&gt;&amp;nbsp;melk in koffie?&lt;/font&gt;" style="text;html=1;align=center;verticalAlign=middle;resizable=0;points=[];autosize=1;strokeColor=none;fillColor=none;fontSize=12;" vertex="1" parent="1">
                    <mxGeometry x="220" y="440" width="100" height="30" as="geometry"/>
                </mxCell>
                <mxCell id="12" value="&lt;font style=&quot;font-size: 12px&quot;&gt;Loop naar voordeur&lt;/font&gt;" style="rounded=0;whiteSpace=wrap;html=1;fontSize=15;" vertex="1" parent="1">
                    <mxGeometry x="440" y="360" width="140" height="40" as="geometry"/>
                </mxCell>
                <mxCell id="13" value="&lt;font style=&quot;font-size: 12px&quot;&gt;Open voordeur&lt;/font&gt;" style="rounded=0;whiteSpace=wrap;html=1;fontSize=15;" vertex="1" parent="1">
                    <mxGeometry x="440" y="400" width="140" height="40" as="geometry"/>
                </mxCell>
                <mxCell id="15" value="" style="rounded=0;whiteSpace=wrap;html=1;fontSize=15;" vertex="1" parent="1">
                    <mxGeometry x="440" y="440" width="140" height="60" as="geometry"/>
                </mxCell>
                <mxCell id="16" value="&lt;font style=&quot;font-size: 12px&quot;&gt;Neem kopje koffie aan&lt;/font&gt;" style="rounded=0;whiteSpace=wrap;html=1;fontSize=15;" vertex="1" parent="1">
                    <mxGeometry x="440" y="500" width="70" height="40" as="geometry"/>
                </mxCell>
                <mxCell id="17" value="&lt;font style=&quot;font-size: 12px&quot;&gt;&quot;Helaas&quot;&lt;/font&gt;" style="rounded=0;whiteSpace=wrap;html=1;fontSize=15;" vertex="1" parent="1">
                    <mxGeometry x="510" y="500" width="70" height="40" as="geometry"/>
                </mxCell>
                <mxCell id="18" value="" style="endArrow=none;html=1;fontSize=12;exitX=0;exitY=0;exitDx=0;exitDy=0;entryX=1;entryY=0;entryDx=0;entryDy=0;" edge="1" parent="1" source="17" target="15">
                    <mxGeometry width="50" height="50" relative="1" as="geometry">
                        <mxPoint x="530" y="510" as="sourcePoint"/>
                        <mxPoint x="580" y="460" as="targetPoint"/>
                    </mxGeometry>
                </mxCell>
                <mxCell id="19" value="" style="endArrow=none;html=1;fontSize=12;exitX=0;exitY=0;exitDx=0;exitDy=0;entryX=0;entryY=0;entryDx=0;entryDy=0;" edge="1" parent="1" source="17" target="15">
                    <mxGeometry width="50" height="50" relative="1" as="geometry">
                        <mxPoint x="560" y="500" as="sourcePoint"/>
                        <mxPoint x="630" y="460" as="targetPoint"/>
                    </mxGeometry>
                </mxCell>
                <mxCell id="20" value="Ja" style="text;html=1;align=center;verticalAlign=middle;resizable=0;points=[];autosize=1;strokeColor=none;fillColor=none;fontSize=12;" vertex="1" parent="1">
                    <mxGeometry x="440" y="480" width="30" height="20" as="geometry"/>
                </mxCell>
                <mxCell id="21" value="Nee" style="text;html=1;align=center;verticalAlign=middle;resizable=0;points=[];autosize=1;strokeColor=none;fillColor=none;fontSize=12;" vertex="1" parent="1">
                    <mxGeometry x="540" y="480" width="40" height="20" as="geometry"/>
                </mxCell>
                <mxCell id="22" value="Melk in koelkast?" style="text;html=1;align=center;verticalAlign=middle;resizable=0;points=[];autosize=1;strokeColor=none;fillColor=none;fontSize=12;" vertex="1" parent="1">
                    <mxGeometry x="455" y="445" width="110" height="20" as="geometry"/>
                </mxCell>
                <mxCell id="23" value="&lt;font style=&quot;font-size: 12px&quot;&gt;Loop naar koelkast&lt;/font&gt;" style="rounded=0;whiteSpace=wrap;html=1;fontSize=15;" vertex="1" parent="1">
                    <mxGeometry x="440" y="540" width="70" height="40" as="geometry"/>
                </mxCell>
                <mxCell id="24" value="&lt;font style=&quot;font-size: 12px&quot;&gt;Pak melk&lt;br&gt;&lt;/font&gt;" style="rounded=0;whiteSpace=wrap;html=1;fontSize=15;" vertex="1" parent="1">
                    <mxGeometry x="440" y="580" width="70" height="40" as="geometry"/>
                </mxCell>
                <mxCell id="25" value="&lt;font style=&quot;font-size: 12px&quot;&gt;Voeg scheutje toe aan koffie&lt;br&gt;&lt;/font&gt;" style="rounded=0;whiteSpace=wrap;html=1;fontSize=15;" vertex="1" parent="1">
                    <mxGeometry x="440" y="620" width="70" height="60" as="geometry"/>
                </mxCell>
                <mxCell id="26" value="&lt;font style=&quot;font-size: 12px&quot;&gt;Loop terug naar voordeur&lt;br&gt;&lt;/font&gt;" style="rounded=0;whiteSpace=wrap;html=1;fontSize=15;" vertex="1" parent="1">
                    <mxGeometry x="440" y="680" width="70" height="60" as="geometry"/>
                </mxCell>
                <mxCell id="27" value="&lt;font style=&quot;font-size: 12px&quot;&gt;Voordeur dicht&lt;br&gt;&lt;/font&gt;" style="rounded=0;whiteSpace=wrap;html=1;fontSize=15;" vertex="1" parent="1">
                    <mxGeometry x="510" y="540" width="70" height="40" as="geometry"/>
                </mxCell>
                <mxCell id="28" value="&lt;font style=&quot;font-size: 16px&quot;&gt;Ik&lt;/font&gt;" style="text;html=1;align=center;verticalAlign=middle;resizable=0;points=[];autosize=1;strokeColor=none;fillColor=none;fontSize=12;" vertex="1" parent="1">
                    <mxGeometry x="240" y="300" width="30" height="20" as="geometry"/>
                </mxCell>
                <mxCell id="29" value="&lt;font style=&quot;font-size: 16px&quot;&gt;Buurvrouw&lt;/font&gt;" style="text;html=1;align=center;verticalAlign=middle;resizable=0;points=[];autosize=1;strokeColor=none;fillColor=none;fontSize=12;" vertex="1" parent="1">
                    <mxGeometry x="465" y="300" width="90" height="20" as="geometry"/>
                </mxCell>
                <mxCell id="30" value="&lt;font style=&quot;font-size: 12px&quot;&gt;Loop naar buren&lt;/font&gt;" style="rounded=0;whiteSpace=wrap;html=1;fontSize=15;" vertex="1" parent="1">
                    <mxGeometry x="200" y="360" width="140" height="40" as="geometry"/>
                </mxCell>
                <mxCell id="31" value="&lt;font style=&quot;font-size: 12px&quot;&gt;Bel aan&lt;/font&gt;" style="rounded=0;whiteSpace=wrap;html=1;fontSize=15;" vertex="1" parent="1">
                    <mxGeometry x="200" y="400" width="140" height="40" as="geometry"/>
                </mxCell>
                <mxCell id="32" value="&lt;font style=&quot;font-size: 12px&quot;&gt;Geef koffie aan buurman&lt;br&gt;&lt;/font&gt;" style="rounded=0;whiteSpace=wrap;html=1;fontSize=15;" vertex="1" parent="1">
                    <mxGeometry x="440" y="740" width="70" height="60" as="geometry"/>
                </mxCell>
            </root>
        </mxGraphModel>
    </diagram>
</mxfile>